<svg width="56" height="56" viewBox="0 0 56 56" fill="none" xmlns="http://www.w3.org/2000/svg">
<path d="M53.2 0.400002H17.2C15.88 0.400002 14.8 1.48 14.8 2.8V5.2H12.4C11.08 5.2 9.99999 6.28 9.99999 7.6V10H7.59999C6.27999 10 5.19999 11.08 5.19999 12.4V14.8H2.79999C1.47999 14.8 0.399994 15.88 0.399994 17.2V53.2C0.399994 54.52 1.47999 55.6 2.79999 55.6H38.8C40.12 55.6 41.2 54.52 41.2 53.2V50.8H43.6C44.92 50.8 46 49.72 46 48.4V46H48.4C49.72 46 50.8 44.92 50.8 43.6V41.2H53.2C54.52 41.2 55.6 40.12 55.6 38.8V2.8C55.6 1.48 54.52 0.400002 53.2 0.400002ZM16 2.8C16 2.14 16.54 1.6 17.2 1.6H53.2C53.86 1.6 54.4 2.14 54.4 2.8V6.4H50.44C50.02 5.68 49.24 5.2 48.4 5.2H47.8H44.2H16V2.8ZM11.2 7.6C11.2 6.94 11.74 6.4 12.4 6.4H48.4C49.06 6.4 49.6 6.94 49.6 7.6V11.2H45.64C45.22 10.48 44.44 10 43.6 10H43H39.4H11.2V7.6ZM6.39999 12.4C6.39999 11.74 6.93999 11.2 7.59999 11.2H43.6C44.26 11.2 44.8 11.74 44.8 12.4V16H40.84C40.42 15.28 39.64 14.8 38.8 14.8H38.2H34.6H6.39999V12.4ZM2.79999 16H38.8C39.46 16 40 16.54 40 17.2V20.8H1.59999V17.2C1.59999 16.54 2.13999 16 2.79999 16ZM40 53.2C40 53.86 39.46 54.4 38.8 54.4H2.79999C2.13999 54.4 1.59999 53.86 1.59999 53.2V22H40V53.2ZM44.8 48.4C44.8 49.06 44.26 49.6 43.6 49.6H41.2V17.2H44.8V48.4ZM49.6 43.6C49.6 44.26 49.06 44.8 48.4 44.8H46V12.4H49.6V43.6ZM53.2 40H50.8V7.6H54.4V38.8C54.4 39.46 53.86 40 53.2 40Z" fill="#0085FF"/>
<path d="M29.8 19.6C30.4627 19.6 31 19.0627 31 18.4C31 17.7373 30.4627 17.2 29.8 17.2C29.1372 17.2 28.6 17.7373 28.6 18.4C28.6 19.0627 29.1372 19.6 29.8 19.6Z" fill="#0085FF"/>
<path d="M33.4 19.6C34.0627 19.6 34.6 19.0627 34.6 18.4C34.6 17.7373 34.0627 17.2 33.4 17.2C32.7373 17.2 32.2 17.7373 32.2 18.4C32.2 19.0627 32.7373 19.6 33.4 19.6Z" fill="#0085FF"/>
<path d="M37 19.6C37.6627 19.6 38.2 19.0627 38.2 18.4C38.2 17.7373 37.6627 17.2 37 17.2C36.3372 17.2 35.8 17.7373 35.8 18.4C35.8 19.0627 36.3372 19.6 37 19.6Z" fill="#0085FF"/>
<path d="M34.6 14.8C35.2627 14.8 35.8 14.2627 35.8 13.6C35.8 12.9373 35.2627 12.4 34.6 12.4C33.9373 12.4 33.4 12.9373 33.4 13.6C33.4 14.2627 33.9373 14.8 34.6 14.8Z" fill="#0085FF"/>
<path d="M38.2 14.8C38.8627 14.8 39.4 14.2627 39.4 13.6C39.4 12.9373 38.8627 12.4 38.2 12.4C37.5373 12.4 37 12.9373 37 13.6C37 14.2627 37.5373 14.8 38.2 14.8Z" fill="#0085FF"/>
<path d="M41.8 14.8C42.4627 14.8 43 14.2627 43 13.6C43 12.9373 42.4627 12.4 41.8 12.4C41.1372 12.4 40.6 12.9373 40.6 13.6C40.6 14.2627 41.1372 14.8 41.8 14.8Z" fill="#0085FF"/>
<path d="M39.4 10C40.0627 10 40.6 9.46274 40.6 8.8C40.6 8.13726 40.0627 7.6 39.4 7.6C38.7373 7.6 38.2 8.13726 38.2 8.8C38.2 9.46274 38.7373 10 39.4 10Z" fill="#0085FF"/>
<path d="M43 10C43.6627 10 44.2 9.46274 44.2 8.8C44.2 8.13726 43.6627 7.6 43 7.6C42.3372 7.6 41.8 8.13726 41.8 8.8C41.8 9.46274 42.3372 10 43 10Z" fill="#0085FF"/>
<path d="M46.6 10C47.2627 10 47.8 9.46274 47.8 8.8C47.8 8.13726 47.2627 7.6 46.6 7.6C45.9373 7.6 45.4 8.13726 45.4 8.8C45.4 9.46274 45.9373 10 46.6 10Z" fill="#0085FF"/>
<path d="M44.2 5.2C44.8627 5.2 45.4 4.66274 45.4 4C45.4 3.33726 44.8627 2.8 44.2 2.8C43.5373 2.8 43 3.33726 43 4C43 4.66274 43.5373 5.2 44.2 5.2Z" fill="#0085FF"/>
<path d="M47.8 5.2C48.4627 5.2 49 4.66274 49 4C49 3.33726 48.4627 2.8 47.8 2.8C47.1372 2.8 46.6 3.33726 46.6 4C46.6 4.66274 47.1372 5.2 47.8 5.2Z" fill="#0085FF"/>
<path d="M51.4 5.2C52.0627 5.2 52.6 4.66274 52.6 4C52.6 3.33726 52.0627 2.8 51.4 2.8C50.7373 2.8 50.2 3.33726 50.2 4C50.2 4.66274 50.7373 5.2 51.4 5.2Z" fill="#0085FF"/>
<path d="M5.19999 31H36.4C37.42 31 38.2 30.22 38.2 29.2V25.6C38.2 24.58 37.42 23.8 36.4 23.8H5.19999C4.17999 23.8 3.39999 24.58 3.39999 25.6V29.2C3.39999 30.22 4.17999 31 5.19999 31ZM4.59999 25.6C4.59999 25.24 4.83999 25 5.19999 25H36.4C36.76 25 37 25.24 37 25.6V29.2C37 29.56 36.76 29.8 36.4 29.8H5.19999C4.83999 29.8 4.59999 29.56 4.59999 29.2V25.6Z" fill="#0085FF"/>
<path d="M19.6 39.4H5.19999C4.17999 39.4 3.39999 40.18 3.39999 41.2V50.8C3.39999 51.82 4.17999 52.6 5.19999 52.6H19.6C20.62 52.6 21.4 51.82 21.4 50.8V41.2C21.4 40.18 20.62 39.4 19.6 39.4ZM20.2 50.8C20.2 51.16 19.96 51.4 19.6 51.4H5.19999C4.83999 51.4 4.59999 51.16 4.59999 50.8V41.2C4.59999 40.84 4.83999 40.6 5.19999 40.6H19.6C19.96 40.6 20.2 40.84 20.2 41.2V50.8Z" fill="#0085FF"/>
<path d="M38.2 36.4H4.6C4.24 36.4 4 36.64 4 37C4 37.36 4.24 37.6 4.6 37.6H38.2C38.56 37.6 38.8 37.36 38.8 37C38.8 36.64 38.56 36.4 38.2 36.4Z" fill="#0085FF"/>
<path d="M38.2 33.4H4.6C4.24 33.4 4 33.64 4 34C4 34.36 4.24 34.6 4.6 34.6H38.2C38.56 34.6 38.8 34.36 38.8 34C38.8 33.64 38.56 33.4 38.2 33.4Z" fill="#0085FF"/>
<path d="M37.6 39.4H23.8C23.44 39.4 23.2 39.64 23.2 40C23.2 40.36 23.44 40.6 23.8 40.6H37.6C37.96 40.6 38.2 40.36 38.2 40C38.2 39.64 37.96 39.4 37.6 39.4Z" fill="#0085FF"/>
<path d="M37.6 42.4H23.8C23.44 42.4 23.2 42.64 23.2 43C23.2 43.36 23.44 43.6 23.8 43.6H37.6C37.96 43.6 38.2 43.36 38.2 43C38.2 42.64 37.96 42.4 37.6 42.4Z" fill="#0085FF"/>
<path d="M37.6 45.4H23.8C23.44 45.4 23.2 45.64 23.2 46C23.2 46.36 23.44 46.6 23.8 46.6H37.6C37.96 46.6 38.2 46.36 38.2 46C38.2 45.64 37.96 45.4 37.6 45.4Z" fill="#0085FF"/>
<path d="M37.6 48.4H23.8C23.44 48.4 23.2 48.64 23.2 49C23.2 49.36 23.44 49.6 23.8 49.6H37.6C37.96 49.6 38.2 49.36 38.2 49C38.2 48.64 37.96 48.4 37.6 48.4Z" fill="#0085FF"/>
<path d="M37.6 51.4H23.8C23.44 51.4 23.2 51.64 23.2 52C23.2 52.36 23.44 52.6 23.8 52.6H37.6C37.96 52.6 38.2 52.36 38.2 52C38.2 51.64 37.96 51.4 37.6 51.4Z" fill="#0085FF"/>
</svg>
