<svg width="50" height="50" viewBox="0 0 50 50" fill="none" xmlns="http://www.w3.org/2000/svg">
<path fill-rule="evenodd" clip-rule="evenodd" d="M25 3.125C12.9156 3.125 3.125 12.9063 3.125 24.9781C3.125 34.6344 9.39375 42.8219 18.0844 45.7125C19.1781 45.9125 19.5781 45.2375 19.5781 44.6594C19.5781 44.1406 19.5594 42.7656 19.5469 40.9406C13.4625 42.2625 12.1812 38.0125 12.1812 38.0125C11.1844 35.4875 9.75 34.8156 9.75 34.8156C7.76562 33.4594 9.9 33.4875 9.9 33.4875C12.0969 33.6438 13.2531 35.7375 13.2531 35.7375C15.2031 39.0813 18.3719 38.1125 19.6187 37.5563C19.8156 36.1438 20.3813 35.1813 21.0063 34.6344C16.15 34.0844 11.0437 32.2094 11.0437 23.8344C11.0437 21.45 11.8969 19.4969 13.2938 17.9719C13.0688 17.4188 12.3187 15.1969 13.5125 12.1906C13.5125 12.1906 15.3438 11.6 19.525 14.4281C21.3095 13.9419 23.1505 13.694 25 13.6906C26.8594 13.7 28.7313 13.9406 30.4781 14.4281C34.6531 11.6 36.4875 12.1875 36.4875 12.1875C37.6812 15.1969 36.9313 17.4188 36.7062 17.9688C38.1063 19.5 38.9562 21.45 38.9562 23.8344C38.9562 32.2281 33.8375 34.0781 28.9656 34.6156C29.75 35.2906 30.45 36.625 30.45 38.6656C30.45 41.5844 30.4219 43.9406 30.4219 44.6594C30.4219 45.2438 30.8188 45.9219 31.9281 45.7094C36.2793 44.2585 40.064 41.4759 42.7464 37.7553C45.4288 34.0348 46.8732 29.5648 46.875 24.9781C46.8717 19.1795 44.5652 13.6197 40.463 9.52156C36.3607 5.42339 30.7986 3.12251 25 3.125Z" fill="white"/>
</svg>
