<svg width="20" height="23" viewBox="0 0 20 23" fill="none" xmlns="http://www.w3.org/2000/svg">
<path d="M19.5005 17.2642V20.2642C19.4993 20.7944 19.2881 21.3025 18.9132 21.6774C18.5383 22.0523 18.0302 22.2635 17.5 22.2647H2.49998C1.96979 22.2635 1.46167 22.0523 1.08677 21.6774C0.711872 21.3025 0.500702 20.7944 0.499451 20.2642V17.2642C0.5032 15.9391 1.03124 14.6694 1.96821 13.7325C2.90518 12.7955 4.17491 12.2674 5.49998 12.2637H14.5C15.825 12.2674 17.0948 12.7955 18.0317 13.7325C18.9687 14.6694 19.4968 15.9391 19.5005 17.2642ZM4.8905 5.65264C4.89082 4.64215 5.19075 3.65444 5.75237 2.81439C6.314 1.97435 7.1121 1.31971 8.04576 0.933223C8.97942 0.546742 10.0067 0.445782 10.9978 0.643111C11.9888 0.840439 12.8991 1.32719 13.6135 2.04183C14.3279 2.75647 14.8144 3.66689 15.0114 4.65799C15.2084 5.64908 15.1071 6.67635 14.7204 7.60989C14.3336 8.54343 13.6787 9.34133 12.8385 9.9027C11.9983 10.4641 11.0105 10.7637 9.99998 10.7637C8.64486 10.7637 7.34525 10.2254 6.38703 9.26716C5.42882 8.30895 4.8905 7.00933 4.8905 5.65421V5.65264Z" fill="white"/>
</svg>
