<svg width="14" height="10" viewBox="0 0 14 10" fill="none" xmlns="http://www.w3.org/2000/svg">
<path d="M9.76422 9.35928L13.8638 5.29484L13.8868 5.27376C13.9569 5.20429 13.9946 5.1149 14 5.02397V4.97592C13.9946 4.885 13.9569 4.79561 13.8868 4.72614L13.8667 4.70906L9.76422 0.640614C9.61243 0.490095 9.36634 0.490095 9.21455 0.640614C9.06276 0.791132 9.06276 1.03517 9.21455 1.18569L12.7177 4.66012L0.388687 4.65981C0.174024 4.65981 0 4.83237 0 5.04524C0 5.2581 0.174024 5.43067 0.388687 5.43067L12.6264 5.43097L9.21455 8.8142C9.06276 8.96472 9.06276 9.20876 9.21455 9.35928C9.36634 9.5098 9.61243 9.5098 9.76422 9.35928ZM13.656 5.04557L9.48939 0.913151L13.6119 4.99987L13.612 5.00136L13.589 5.02227L13.5655 5.04557H13.656Z" fill="#0085FF"/>
</svg>
