<svg width="50" height="50" viewBox="0 0 50 50" fill="none" xmlns="http://www.w3.org/2000/svg">
<g clip-path="url(#clip0_7_190)">
<path fill-rule="evenodd" clip-rule="evenodd" d="M25.1078 39.2828C16.7188 39.2828 12.9672 35.1594 12.9672 32.0687C12.9672 30.4828 14.1375 29.3719 15.75 29.3719C19.3406 29.3719 18.4109 34.5266 25.1078 34.5266C28.5359 34.5266 30.4297 32.6641 30.4297 30.7594C30.4297 29.6141 29.8641 28.3438 27.6062 27.7875L20.1453 25.925C14.1375 24.4187 13.0469 21.1703 13.0469 18.1172C13.0469 11.7766 19.0156 9.39687 24.6219 9.39687C29.7844 9.39687 35.8719 12.25 35.8719 16.0531C35.8719 17.6828 34.4609 18.6312 32.8484 18.6312C29.7844 18.6312 30.3484 14.3906 24.1781 14.3906C21.1156 14.3906 19.4203 15.7781 19.4203 17.7625C19.4203 19.7422 21.8391 20.375 23.9375 20.8531L29.4609 22.0797C35.5094 23.4266 37.0422 26.9578 37.0422 30.2844C37.0422 35.4359 33.0891 39.2828 25.1078 39.2828ZM48.2297 29.1031C48.2141 29.1906 48.2031 29.2797 48.1859 29.3672L48.1016 28.8641C48.1469 28.9422 48.1859 29.0234 48.2297 29.1031C48.4875 27.6984 48.6234 26.2609 48.6234 24.8234C48.6234 21.6359 47.9984 18.5437 46.7672 15.6328C45.5766 12.8219 43.8766 10.2969 41.7062 8.12812C39.5391 5.95937 37.0125 4.25781 34.2016 3.06875C31.2922 1.8375 28.2 1.21406 25.0141 1.21406C23.5109 1.21406 22.0063 1.35469 20.5422 1.63594C20.5391 1.63594 20.5359 1.63594 20.5312 1.6375C20.6141 1.68125 20.6969 1.72031 20.7781 1.76562L20.2812 1.6875C20.3641 1.67188 20.4484 1.65469 20.5312 1.6375C18.5219 0.570312 16.2641 0 13.9766 0C10.2437 0 6.73281 1.45312 4.09375 4.09375C1.45469 6.73281 0 10.2437 0 13.9781C0 16.3531 0.610937 18.6891 1.75781 20.7547C1.77187 20.6687 1.78281 20.5812 1.8 20.4969L1.88594 20.9922C1.84062 20.9141 1.80156 20.8328 1.75781 20.7547C1.525 22.0906 1.40156 23.4578 1.40156 24.8234C1.40156 28.0109 2.02656 31.1031 3.25937 34.0141C4.44687 36.8266 6.15 39.35 8.31719 41.5187C10.4859 43.6859 13.0094 45.3906 15.8234 46.5766C18.7328 47.8109 21.8266 48.4344 25.0141 48.4344C26.4 48.4344 27.7906 48.3078 29.1484 48.0672C29.0687 48.0234 28.9875 47.9828 28.9078 47.9359L29.4125 48.025C29.325 48.0406 29.2375 48.0516 29.1484 48.0672C31.2391 49.2516 33.6063 49.8797 36.0234 49.8797C39.7578 49.8797 43.2656 48.4281 45.9062 45.7859C48.5469 43.1484 50 39.6375 50 35.9031C50 33.5187 49.3859 31.175 48.2297 29.1031Z" fill="#00AFF0"/>
</g>
<defs>
<clipPath id="clip0_7_190">
<rect width="50" height="50" fill="white"/>
</clipPath>
</defs>
</svg>
