<svg width="30" height="30" viewBox="0 0 30 30" fill="none" xmlns="http://www.w3.org/2000/svg">
<path fill-rule="evenodd" clip-rule="evenodd" d="M15 0C23.2843 0 30 6.71573 30 15C30 23.2843 23.2843 30 15 30C6.71573 30 0 23.2843 0 15C0 6.71573 6.71573 0 15 0ZM17.6045 9.00666C17.2384 8.64055 16.6448 8.64055 16.2787 9.00666L10.9754 14.31C10.8064 14.4789 10.7154 14.6964 10.7024 14.9175V15.0687C10.7154 15.2898 10.8064 15.5073 10.9754 15.6762L16.2787 20.9795C16.6448 21.3457 17.2384 21.3457 17.6045 20.9795C17.9707 20.6134 17.9707 20.0198 17.6045 19.6537L12.944 14.9927L17.6045 10.3325C17.9707 9.96637 17.9707 9.37278 17.6045 9.00666Z" fill="white"/>
</svg>
