<svg width="30" height="30" viewBox="0 0 30 30" fill="none" xmlns="http://www.w3.org/2000/svg">
<path fill-rule="evenodd" clip-rule="evenodd" d="M15 0C23.2843 0 30 6.71573 30 15C30 23.2843 23.2843 30 15 30C6.71573 30 0 23.2843 0 15C0 6.71573 6.71573 0 15 0ZM17.7042 9.375C16.9396 9.37463 16.2062 9.67361 15.6656 10.2061C15.125 10.7386 14.8214 11.4609 14.8218 12.2139C14.8218 12.4338 14.849 12.653 14.8934 12.8645C12.5745 12.7479 10.4145 11.6683 8.9498 9.89373C8.70007 10.3152 8.55767 10.7987 8.55767 11.3259C8.55667 12.2762 9.03923 13.1638 9.84284 13.6898C9.37056 13.6722 8.92476 13.5404 8.54049 13.3296V13.3649C8.53857 14.7173 9.50582 15.8833 10.8518 16.1509C10.6107 16.2123 10.3509 16.2475 10.0926 16.2475C9.9051 16.2475 9.7262 16.2299 9.54803 16.2038C9.92765 17.3595 11.0105 18.1503 12.2436 18.1723C11.2229 18.9611 9.96234 19.3883 8.66501 19.3853C8.42386 19.3853 8.2006 19.3761 7.96875 19.35C9.24534 20.1591 10.7624 20.625 12.3953 20.625C17.6956 20.625 20.5958 16.3004 20.5958 12.5473C20.5958 12.4247 20.5958 12.302 20.5865 12.1787C21.1486 11.773 21.6371 11.2766 22.0312 10.7106C21.5035 10.9379 20.9441 11.0861 20.3718 11.1504C20.9735 10.7981 21.424 10.2418 21.6391 9.58574C21.0742 9.91658 20.4554 10.1486 19.8101 10.2715C19.2834 9.71753 18.5342 9.375 17.7042 9.375Z" fill="white"/>
</svg>
